<svg width="1980" height="900" viewBox="0 0 1980 900" fill="none" xmlns="http://www.w3.org/2000/svg">

<path fill-rule="evenodd" clip-rule="evenodd" d="M360 300C360 298.343 361.343 297 363 297H477C478.657 297 480 298.343 480 300C480 301.657 478.657 303 477 303H366V414C366 415.657 364.657 417 363 417C361.343 417 360 415.657 360 414V300Z" fill="white"/>
<path fill-rule="evenodd" clip-rule="evenodd" d="M1666 556C1666 557.657 1664.66 559 1663 559L1549 559C1547.34 559 1546 557.657 1546 556C1546 554.343 1547.34 553 1549 553L1660 553L1660 442C1660 440.343 1661.34 439 1663 439C1664.66 439 1666 440.343 1666 442L1666 556Z" fill="white"/>
<path d="M484.909 371.608C485.659 371.608 486.408 371.769 487.157 372.09C488.014 372.411 488.709 372.946 489.245 373.695L533.559 440.167L529.224 440.007L573.699 373.695C574.877 372.09 576.322 371.394 578.034 371.608C579.319 371.608 580.389 372.09 581.245 373.053C582.209 373.909 582.69 375.033 582.69 376.425V479.183C582.69 480.468 582.209 481.592 581.245 482.555C580.282 483.518 579.105 484 577.713 484C576.215 484 574.984 483.518 574.02 482.555C573.057 481.592 572.575 480.468 572.575 479.183V386.219L575.465 386.54L534.844 448.035C534.522 448.677 534.041 449.212 533.399 449.64C532.756 449.961 532.007 450.068 531.151 449.961C530.401 450.068 529.652 449.961 528.903 449.64C528.261 449.212 527.725 448.677 527.297 448.035L486.515 385.898L489.566 383.811V479.183C489.566 480.468 489.084 481.592 488.121 482.555C487.264 483.518 486.14 484 484.749 484C483.357 484 482.233 483.518 481.377 482.555C480.521 481.592 480.093 480.468 480.093 479.183V376.425C480.093 375.14 480.521 374.016 481.377 373.053C482.34 372.09 483.518 371.608 484.909 371.608ZM617.716 371.608H676.642C677.926 371.608 679.05 372.09 680.014 373.053C680.977 373.909 681.459 375.033 681.459 376.425C681.459 377.816 680.977 378.94 680.014 379.797C679.05 380.653 677.926 381.081 676.642 381.081H621.409L623.015 378.352V423.469L621.249 421.382H669.417C670.701 421.382 671.825 421.863 672.788 422.827C673.752 423.79 674.234 424.914 674.234 426.198C674.234 427.59 673.752 428.714 672.788 429.57C671.825 430.426 670.701 430.855 669.417 430.855H621.57L623.015 429.249V475.49L622.212 474.527H676.642C677.926 474.527 679.05 475.009 680.014 475.972C680.977 476.935 681.459 478.059 681.459 479.344C681.459 480.735 680.977 481.859 680.014 482.716C679.05 483.572 677.926 484 676.642 484H617.716C616.432 484 615.308 483.518 614.345 482.555C613.381 481.592 612.9 480.468 612.9 479.183V376.425C612.9 375.14 613.381 374.016 614.345 373.053C615.308 372.09 616.432 371.608 617.716 371.608ZM786.362 371.608C787.754 371.608 788.824 372.036 789.573 372.892C790.43 373.749 790.858 374.819 790.858 376.104V478.862C790.858 480.468 790.323 481.752 789.252 482.716C788.289 483.572 787.165 484 785.88 484C785.238 484 784.542 483.893 783.793 483.679C783.044 483.358 782.455 482.93 782.027 482.394L710.417 385.898L713.147 384.453V479.665C713.147 480.842 712.719 481.859 711.862 482.716C711.006 483.572 709.936 484 708.651 484C707.26 484 706.136 483.572 705.279 482.716C704.53 481.859 704.155 480.842 704.155 479.665V376.425C704.155 374.819 704.637 373.642 705.6 372.892C706.564 372.036 707.634 371.608 708.812 371.608C709.454 371.608 710.15 371.769 710.899 372.09C711.648 372.304 712.237 372.732 712.665 373.374L783.472 468.747L781.866 471.637V376.104C781.866 374.819 782.295 373.749 783.151 372.892C784.114 372.036 785.185 371.608 786.362 371.608Z" fill="white"/>
<path d="M880.081 485.606C871.946 485.713 864.881 484.428 858.887 481.752C852.893 479.076 847.166 475.062 841.707 469.71C841.172 469.282 840.69 468.747 840.262 468.105C839.941 467.462 839.78 466.713 839.78 465.857C839.78 464.572 840.262 463.395 841.225 462.324C842.296 461.254 843.473 460.719 844.758 460.719C846.042 460.719 847.219 461.254 848.29 462.324C852.464 466.82 857.174 470.245 862.419 472.6C867.771 474.955 873.498 476.133 879.599 476.133C884.737 476.133 889.286 475.33 893.247 473.724C897.314 472.119 900.525 469.817 902.88 466.82C905.235 463.823 906.413 460.344 906.413 456.384C906.413 451.46 905.075 447.499 902.399 444.502C899.723 441.398 896.19 438.883 891.802 436.956C887.413 434.922 882.543 433.102 877.191 431.497C872.802 430.212 868.627 428.767 864.667 427.162C860.706 425.449 857.174 423.415 854.07 421.06C850.966 418.599 848.557 415.601 846.845 412.069C845.132 408.537 844.276 404.255 844.276 399.224C844.276 393.551 845.774 388.52 848.772 384.132C851.769 379.743 855.997 376.318 861.456 373.856C867.022 371.287 873.444 370.002 880.723 370.002C887.038 370.002 893.086 371.073 898.866 373.214C904.753 375.354 909.41 378.512 912.835 382.687C914.441 384.399 915.243 385.951 915.243 387.343C915.243 388.413 914.708 389.484 913.638 390.554C912.567 391.624 911.39 392.16 910.105 392.16C909.035 392.16 908.125 391.785 907.376 391.036C905.556 388.788 903.255 386.808 900.472 385.095C897.689 383.275 894.585 381.884 891.159 380.92C887.841 379.957 884.362 379.475 880.723 379.475C875.692 379.475 871.143 380.278 867.075 381.884C863.115 383.382 859.957 385.577 857.602 388.467C855.354 391.357 854.231 394.836 854.231 398.903C854.231 403.399 855.515 407.092 858.084 409.982C860.653 412.872 864.025 415.28 868.199 417.207C872.374 419.027 876.816 420.739 881.526 422.345C886.128 423.629 890.517 425.128 894.692 426.841C898.973 428.446 902.72 430.48 905.931 432.942C909.249 435.404 911.818 438.508 913.638 442.254C915.564 446.001 916.528 450.711 916.528 456.384C916.528 461.843 914.976 466.767 911.872 471.155C908.767 475.544 904.486 479.023 899.027 481.592C893.675 484.161 887.359 485.499 880.081 485.606Z" fill="white"/>
<rect x="813" y="371" width="9" height="27" rx="4.5" fill="white"/>
<path d="M1030.67 485.606C1022.32 485.606 1014.61 484.214 1007.55 481.431C1000.59 478.541 994.49 474.527 989.245 469.389C984.107 464.144 980.093 457.989 977.203 450.925C974.42 443.86 973.028 436.153 973.028 427.804C973.028 419.455 974.42 411.748 977.203 404.683C980.093 397.619 984.107 391.517 989.245 386.38C994.49 381.135 1000.59 377.121 1007.55 374.338C1014.61 371.447 1022.32 370.002 1030.67 370.002C1036.56 370.002 1042.23 370.752 1047.69 372.25C1053.15 373.642 1058.02 375.783 1062.3 378.673C1062.83 378.994 1063.21 379.422 1063.42 379.957C1063.64 380.385 1063.74 380.867 1063.74 381.402C1063.74 382.473 1063.37 383.275 1062.62 383.811C1061.87 384.346 1061.23 384.613 1060.69 384.613C1060.27 384.613 1059.89 384.56 1059.57 384.453C1059.25 384.239 1058.93 384.078 1058.61 383.971C1054.65 381.723 1050.31 379.904 1045.6 378.512C1040.89 377.121 1035.91 376.425 1030.67 376.425C1020.71 376.425 1011.88 378.673 1004.18 383.168C996.577 387.557 990.583 393.605 986.194 401.312C981.912 409.018 979.772 417.849 979.772 427.804C979.772 437.759 981.912 446.643 986.194 454.457C990.583 462.164 996.577 468.212 1004.18 472.6C1011.88 476.989 1020.71 479.183 1030.67 479.183C1036.02 479.183 1041.27 478.38 1046.4 476.775C1051.65 475.062 1056.25 472.868 1060.21 470.192L1059.57 473.082V432.942L1061.82 435.029H1030.67C1029.81 435.029 1029.06 434.708 1028.42 434.066C1027.78 433.424 1027.46 432.674 1027.46 431.818C1027.46 430.855 1027.78 430.105 1028.42 429.57C1029.06 428.928 1029.81 428.607 1030.67 428.607H1062.78C1063.74 428.607 1064.49 428.928 1065.03 429.57C1065.67 430.212 1065.99 430.962 1065.99 431.818V472.119C1065.99 472.547 1065.89 473.028 1065.67 473.564C1065.46 474.099 1065.08 474.58 1064.55 475.009C1059.84 478.22 1054.54 480.789 1048.65 482.716C1042.87 484.642 1036.88 485.606 1030.67 485.606ZM1095.91 484C1094.84 484 1093.98 483.679 1093.34 483.037C1092.81 482.394 1092.54 481.645 1092.54 480.789V374.819C1092.54 373.963 1092.86 373.214 1093.5 372.571C1094.14 371.929 1094.89 371.608 1095.75 371.608H1138.14C1144.45 371.608 1149.97 372.892 1154.68 375.461C1159.49 377.923 1163.24 381.349 1165.91 385.737C1168.59 390.126 1169.93 395.103 1169.93 400.669C1169.93 405.593 1169.02 410.035 1167.2 413.996C1165.49 417.956 1163.02 421.275 1159.81 423.951C1156.71 426.52 1153.12 428.393 1149.06 429.57L1141.67 428.286C1145.95 428.286 1150.02 429.41 1153.87 431.657C1157.73 433.798 1160.88 437.009 1163.35 441.291C1165.81 445.466 1167.04 450.604 1167.04 456.705C1167.04 461.95 1167.25 465.964 1167.68 468.747C1168.22 471.423 1168.86 473.403 1169.61 474.688C1170.46 475.972 1171.43 476.989 1172.5 477.738C1173.14 478.166 1173.62 478.702 1173.94 479.344C1174.26 479.986 1174.32 480.735 1174.1 481.592C1173.89 482.234 1173.51 482.769 1172.98 483.197C1172.55 483.518 1172.07 483.732 1171.53 483.839C1171 483.946 1170.41 483.839 1169.77 483.518C1168.27 482.662 1166.77 481.378 1165.27 479.665C1163.88 477.952 1162.7 475.33 1161.74 471.797C1160.78 468.265 1160.29 463.234 1160.29 456.705C1160.29 451.674 1159.49 447.66 1157.89 444.663C1156.39 441.666 1154.41 439.364 1151.95 437.759C1149.59 436.153 1147.02 435.083 1144.24 434.548C1141.56 434.012 1139.1 433.745 1136.85 433.745H1097.84L1099.28 431.818V480.789C1099.28 481.645 1098.96 482.394 1098.32 483.037C1097.68 483.679 1096.87 484 1095.91 484ZM1097.68 427.322H1138.94C1143.22 426.894 1147.18 425.61 1150.82 423.469C1154.46 421.328 1157.4 418.331 1159.65 414.478C1162.01 410.624 1163.18 406.075 1163.18 400.83C1163.18 394.3 1160.83 388.895 1156.12 384.613C1151.52 380.225 1145.26 378.03 1137.33 378.03H1098.48L1099.28 376.906V429.088L1097.68 427.322ZM1296.82 427.804C1296.82 436.367 1295.48 444.181 1292.8 451.246C1290.24 458.31 1286.54 464.412 1281.73 469.55C1276.91 474.688 1271.24 478.648 1264.71 481.431C1258.18 484.214 1251.01 485.606 1243.19 485.606C1235.38 485.606 1228.21 484.214 1221.68 481.431C1215.15 478.648 1209.47 474.688 1204.66 469.55C1199.84 464.412 1196.09 458.31 1193.42 451.246C1190.85 444.181 1189.56 436.367 1189.56 427.804C1189.56 419.241 1190.85 411.427 1193.42 404.362C1196.09 397.298 1199.84 391.196 1204.66 386.058C1209.47 380.92 1215.15 376.96 1221.68 374.177C1228.21 371.394 1235.38 370.002 1243.19 370.002C1251.01 370.002 1258.18 371.394 1264.71 374.177C1271.24 376.96 1276.91 380.92 1281.73 386.058C1286.54 391.196 1290.24 397.298 1292.8 404.362C1295.48 411.427 1296.82 419.241 1296.82 427.804ZM1290.08 427.804C1290.08 417.528 1288.04 408.537 1283.97 400.83C1280.01 393.123 1274.5 387.129 1267.44 382.847C1260.48 378.566 1252.4 376.425 1243.19 376.425C1234.09 376.425 1226.01 378.566 1218.95 382.847C1211.88 387.129 1206.32 393.123 1202.25 400.83C1198.29 408.537 1196.31 417.528 1196.31 427.804C1196.31 438.08 1198.29 447.071 1202.25 454.778C1206.32 462.485 1211.88 468.479 1218.95 472.761C1226.01 477.042 1234.09 479.183 1243.19 479.183C1252.4 479.183 1260.48 477.042 1267.44 472.761C1274.5 468.479 1280.01 462.485 1283.97 454.778C1288.04 447.071 1290.08 438.08 1290.08 427.804ZM1420.06 427.804C1420.06 436.367 1418.72 444.181 1416.05 451.246C1413.48 458.31 1409.79 464.412 1404.97 469.55C1400.15 474.688 1394.48 478.648 1387.95 481.431C1381.42 484.214 1374.25 485.606 1366.43 485.606C1358.62 485.606 1351.45 484.214 1344.92 481.431C1338.39 478.648 1332.72 474.688 1327.9 469.55C1323.08 464.412 1319.34 458.31 1316.66 451.246C1314.09 444.181 1312.81 436.367 1312.81 427.804C1312.81 419.241 1314.09 411.427 1316.66 404.362C1319.34 397.298 1323.08 391.196 1327.9 386.058C1332.72 380.92 1338.39 376.96 1344.92 374.177C1351.45 371.394 1358.62 370.002 1366.43 370.002C1374.25 370.002 1381.42 371.394 1387.95 374.177C1394.48 376.96 1400.15 380.92 1404.97 386.058C1409.79 391.196 1413.48 397.298 1416.05 404.362C1418.72 411.427 1420.06 419.241 1420.06 427.804ZM1413.32 427.804C1413.32 417.528 1411.28 408.537 1407.22 400.83C1403.26 393.123 1397.74 387.129 1390.68 382.847C1383.72 378.566 1375.64 376.425 1366.43 376.425C1357.34 376.425 1349.25 378.566 1342.19 382.847C1335.12 387.129 1329.56 393.123 1325.49 400.83C1321.53 408.537 1319.55 417.528 1319.55 427.804C1319.55 438.08 1321.53 447.071 1325.49 454.778C1329.56 462.485 1335.12 468.479 1342.19 472.761C1349.25 477.042 1357.34 479.183 1366.43 479.183C1375.64 479.183 1383.72 477.042 1390.68 472.761C1397.74 468.479 1403.26 462.485 1407.22 454.778C1411.28 447.071 1413.32 438.08 1413.32 427.804ZM1447.13 371.608C1447.66 371.608 1448.2 371.715 1448.73 371.929C1449.27 372.143 1449.75 372.518 1450.18 373.053L1496.26 441.612H1493.05L1539.13 373.053C1539.98 371.876 1541 371.394 1542.18 371.608C1543.04 371.715 1543.73 372.09 1544.27 372.732C1544.8 373.267 1545.07 373.963 1545.07 374.819V480.789C1545.07 481.645 1544.69 482.394 1543.95 483.037C1543.3 483.679 1542.55 484 1541.7 484C1540.73 484 1539.93 483.679 1539.29 483.037C1538.65 482.394 1538.33 481.645 1538.33 480.789V382.044H1540.09L1496.9 447.392C1496.69 447.82 1496.37 448.142 1495.94 448.356C1495.62 448.57 1495.19 448.677 1494.65 448.677C1494.12 448.677 1493.58 448.57 1493.05 448.356C1492.62 448.142 1492.3 447.82 1492.08 447.392L1447.93 380.76H1450.5V480.789C1450.5 481.645 1450.18 482.394 1449.54 483.037C1448.89 483.679 1448.14 484 1447.29 484C1446.32 484 1445.52 483.679 1444.88 483.037C1444.34 482.394 1444.08 481.645 1444.08 480.789V374.819C1444.08 374.07 1444.34 373.374 1444.88 372.732C1445.42 371.983 1446.16 371.608 1447.13 371.608Z" fill="white"/>
<path d="M739.61 539.3C738.09 539.32 736.77 539.08 735.65 538.58C734.53 538.08 733.46 537.33 732.44 536.33C732.34 536.25 732.25 536.15 732.17 536.03C732.11 535.91 732.08 535.77 732.08 535.61C732.08 535.37 732.17 535.15 732.35 534.95C732.55 534.75 732.77 534.65 733.01 534.65C733.25 534.65 733.47 534.75 733.67 534.95C734.45 535.79 735.33 536.43 736.31 536.87C737.31 537.31 738.38 537.53 739.52 537.53C740.48 537.53 741.33 537.38 742.07 537.08C742.83 536.78 743.43 536.35 743.87 535.79C744.31 535.23 744.53 534.58 744.53 533.84C744.53 532.92 744.28 532.18 743.78 531.62C743.28 531.04 742.62 530.57 741.8 530.21C740.98 529.83 740.07 529.49 739.07 529.19C738.25 528.95 737.47 528.68 736.73 528.38C735.99 528.06 735.33 527.68 734.75 527.24C734.17 526.78 733.72 526.22 733.4 525.56C733.08 524.9 732.92 524.1 732.92 523.16C732.92 522.1 733.2 521.16 733.76 520.34C734.32 519.52 735.11 518.88 736.13 518.42C737.17 517.94 738.37 517.7 739.73 517.7C740.91 517.7 742.04 517.9 743.12 518.3C744.22 518.7 745.09 519.29 745.73 520.07C746.03 520.39 746.18 520.68 746.18 520.94C746.18 521.14 746.08 521.34 745.88 521.54C745.68 521.74 745.46 521.84 745.22 521.84C745.02 521.84 744.85 521.77 744.71 521.63C744.37 521.21 743.94 520.84 743.42 520.52C742.9 520.18 742.32 519.92 741.68 519.74C741.06 519.56 740.41 519.47 739.73 519.47C738.79 519.47 737.94 519.62 737.18 519.92C736.44 520.2 735.85 520.61 735.41 521.15C734.99 521.69 734.78 522.34 734.78 523.1C734.78 523.94 735.02 524.63 735.5 525.17C735.98 525.71 736.61 526.16 737.39 526.52C738.17 526.86 739 527.18 739.88 527.48C740.74 527.72 741.56 528 742.34 528.32C743.14 528.62 743.84 529 744.44 529.46C745.06 529.92 745.54 530.5 745.88 531.2C746.24 531.9 746.42 532.78 746.42 533.84C746.42 534.86 746.13 535.78 745.55 536.6C744.97 537.42 744.17 538.07 743.15 538.55C742.15 539.03 740.97 539.28 739.61 539.3ZM756.906 539C756.626 539 756.396 538.91 756.216 538.73C756.056 538.55 755.976 538.34 755.976 538.1V518.99H757.836V538.1C757.836 538.34 757.746 538.55 757.566 538.73C757.386 538.91 757.166 539 756.906 539ZM749.766 519.71C749.526 519.71 749.316 519.63 749.136 519.47C748.956 519.31 748.866 519.1 748.866 518.84C748.866 518.6 748.956 518.4 749.136 518.24C749.316 518.08 749.526 518 749.766 518H764.046C764.286 518 764.496 518.08 764.676 518.24C764.856 518.4 764.946 518.61 764.946 518.87C764.946 519.13 764.856 519.34 764.676 519.5C764.496 519.64 764.286 519.71 764.046 519.71H749.766ZM781.574 517.88C781.834 517.88 782.044 517.98 782.204 518.18C782.384 518.36 782.474 518.56 782.474 518.78C782.474 518.88 782.454 518.98 782.414 519.08C782.394 519.16 782.354 519.25 782.294 519.35L775.244 529.04L775.604 527.87V538.1C775.604 538.34 775.514 538.55 775.334 538.73C775.154 538.91 774.934 539 774.674 539C774.414 539 774.194 538.91 774.014 538.73C773.854 538.55 773.774 538.34 773.774 538.1V528.08L773.924 528.8L767.054 519.41C766.974 519.31 766.914 519.21 766.874 519.11C766.834 518.99 766.814 518.88 766.814 518.78C766.814 518.52 766.914 518.31 767.114 518.15C767.334 517.97 767.554 517.88 767.774 517.88C768.074 517.88 768.324 518.02 768.524 518.3L774.974 527.09L774.524 527.03L780.794 518.3C780.994 518.02 781.254 517.88 781.574 517.88ZM797.432 537.23C797.672 537.23 797.882 537.32 798.062 537.5C798.242 537.66 798.332 537.86 798.332 538.1C798.332 538.36 798.242 538.58 798.062 538.76C797.882 538.92 797.672 539 797.432 539H786.722C786.462 539 786.242 538.91 786.062 538.73C785.902 538.55 785.822 538.34 785.822 538.1V518.9C785.822 518.66 785.912 518.45 786.092 518.27C786.272 518.09 786.502 518 786.782 518C787.022 518 787.232 518.09 787.412 518.27C787.612 518.45 787.712 518.66 787.712 518.9V537.74L787.142 537.23H797.432ZM803.679 538.07C803.659 538.33 803.549 538.55 803.349 538.73C803.169 538.91 802.959 539 802.719 539C802.439 539 802.209 538.91 802.029 538.73C801.869 538.55 801.789 538.33 801.789 538.07V518.93C801.789 518.67 801.879 518.45 802.059 518.27C802.239 518.09 802.469 518 802.749 518C802.989 518 803.199 518.09 803.379 518.27C803.579 518.45 803.679 518.67 803.679 518.93V538.07ZM815.079 539.3C813.559 539.32 812.239 539.08 811.119 538.58C809.999 538.08 808.929 537.33 807.909 536.33C807.809 536.25 807.719 536.15 807.639 536.03C807.579 535.91 807.549 535.77 807.549 535.61C807.549 535.37 807.639 535.15 807.819 534.95C808.019 534.75 808.239 534.65 808.479 534.65C808.719 534.65 808.939 534.75 809.139 534.95C809.919 535.79 810.799 536.43 811.779 536.87C812.779 537.31 813.849 537.53 814.989 537.53C815.949 537.53 816.799 537.38 817.539 537.08C818.299 536.78 818.899 536.35 819.339 535.79C819.779 535.23 819.999 534.58 819.999 533.84C819.999 532.92 819.749 532.18 819.249 531.62C818.749 531.04 818.089 530.57 817.269 530.21C816.449 529.83 815.539 529.49 814.539 529.19C813.719 528.95 812.939 528.68 812.199 528.38C811.459 528.06 810.799 527.68 810.219 527.24C809.639 526.78 809.189 526.22 808.869 525.56C808.549 524.9 808.389 524.1 808.389 523.16C808.389 522.1 808.669 521.16 809.229 520.34C809.789 519.52 810.579 518.88 811.599 518.42C812.639 517.94 813.839 517.7 815.199 517.7C816.379 517.7 817.509 517.9 818.589 518.3C819.689 518.7 820.559 519.29 821.199 520.07C821.499 520.39 821.649 520.68 821.649 520.94C821.649 521.14 821.549 521.34 821.349 521.54C821.149 521.74 820.929 521.84 820.689 521.84C820.489 521.84 820.319 521.77 820.179 521.63C819.839 521.21 819.409 520.84 818.889 520.52C818.369 520.18 817.789 519.92 817.149 519.74C816.529 519.56 815.879 519.47 815.199 519.47C814.259 519.47 813.409 519.62 812.649 519.92C811.909 520.2 811.319 520.61 810.879 521.15C810.459 521.69 810.249 522.34 810.249 523.1C810.249 523.94 810.489 524.63 810.969 525.17C811.449 525.71 812.079 526.16 812.859 526.52C813.639 526.86 814.469 527.18 815.349 527.48C816.209 527.72 817.029 528 817.809 528.32C818.609 528.62 819.309 529 819.909 529.46C820.529 529.92 821.009 530.5 821.349 531.2C821.709 531.9 821.889 532.78 821.889 533.84C821.889 534.86 821.599 535.78 821.019 536.6C820.439 537.42 819.639 538.07 818.619 538.55C817.619 539.03 816.439 539.28 815.079 539.3ZM827.094 518C827.334 518 827.544 518.09 827.724 518.27C827.924 518.45 828.024 518.67 828.024 518.93V538.07C828.004 538.33 827.894 538.55 827.694 538.73C827.514 538.91 827.304 539 827.064 539C826.784 539 826.554 538.91 826.374 538.73C826.214 538.55 826.134 538.33 826.134 538.07V518.93C826.134 518.67 826.224 518.45 826.404 518.27C826.584 518.09 826.814 518 827.094 518ZM841.164 518C841.444 518 841.664 518.09 841.824 518.27C842.004 518.45 842.094 518.67 842.094 518.93V538.07C842.074 538.33 841.974 538.55 841.794 538.73C841.634 538.91 841.414 539 841.134 539C840.874 539 840.654 538.91 840.474 538.73C840.294 538.55 840.204 538.33 840.204 538.07V518.93C840.204 518.67 840.294 518.45 840.474 518.27C840.674 518.09 840.904 518 841.164 518ZM826.944 527.39H841.194L841.164 529.13H826.824L826.944 527.39Z" fill="white"/>
<path d="M910.78 518C911.02 518 911.23 518.09 911.41 518.27C911.61 518.45 911.71 518.67 911.71 518.93V538.07C911.69 538.33 911.58 538.55 911.38 538.73C911.2 538.91 910.99 539 910.75 539C910.47 539 910.24 538.91 910.06 538.73C909.9 538.55 909.82 538.33 909.82 538.07V518.93C909.82 518.67 909.91 518.45 910.09 518.27C910.27 518.09 910.5 518 910.78 518ZM924.85 518C925.13 518 925.35 518.09 925.51 518.27C925.69 518.45 925.78 518.67 925.78 518.93V538.07C925.76 538.33 925.66 538.55 925.48 538.73C925.32 538.91 925.1 539 924.82 539C924.56 539 924.34 538.91 924.16 538.73C923.98 538.55 923.89 538.33 923.89 538.07V518.93C923.89 518.67 923.98 518.45 924.16 518.27C924.36 518.09 924.59 518 924.85 518ZM910.63 527.39H924.88L924.85 529.13H910.51L910.63 527.39ZM938.432 520.31L931.142 538.43C931.062 538.63 930.952 538.78 930.812 538.88C930.672 538.98 930.512 539.03 930.332 539.03C930.052 539.03 929.842 538.96 929.702 538.82C929.562 538.66 929.482 538.47 929.462 538.25C929.442 538.15 929.452 538.03 929.492 537.89L937.412 518.51C937.512 518.29 937.632 518.14 937.772 518.06C937.932 517.96 938.112 517.91 938.312 517.91C938.512 517.91 938.682 517.97 938.822 518.09C938.982 518.19 939.102 518.33 939.182 518.51L947.072 537.8C947.112 537.92 947.132 538.04 947.132 538.16C947.132 538.44 947.042 538.66 946.862 538.82C946.682 538.96 946.472 539.03 946.232 539.03C946.032 539.03 945.852 538.98 945.692 538.88C945.552 538.76 945.442 538.61 945.362 538.43L937.892 520.19L938.432 520.31ZM932.882 532.94L933.632 531.17H942.932L943.292 532.94H932.882ZM966.196 518C966.456 518 966.656 518.08 966.796 518.24C966.956 518.4 967.036 518.6 967.036 518.84V538.04C967.036 538.34 966.936 538.58 966.736 538.76C966.556 538.92 966.346 539 966.106 539C965.986 539 965.856 538.98 965.716 538.94C965.576 538.88 965.466 538.8 965.386 538.7L952.006 520.67L952.516 520.4V538.19C952.516 538.41 952.436 538.6 952.276 538.76C952.116 538.92 951.916 539 951.676 539C951.416 539 951.206 538.92 951.046 538.76C950.906 538.6 950.836 538.41 950.836 538.19V518.9C950.836 518.6 950.926 518.38 951.106 518.24C951.286 518.08 951.486 518 951.706 518C951.826 518 951.956 518.03 952.096 518.09C952.236 518.13 952.346 518.21 952.426 518.33L965.656 536.15L965.356 536.69V518.84C965.356 518.6 965.436 518.4 965.596 518.24C965.776 518.08 965.976 518 966.196 518ZM981.212 518C982.692 518 983.982 518.28 985.082 518.84C986.202 519.4 987.122 520.18 987.842 521.18C988.562 522.16 989.092 523.28 989.432 524.54C989.792 525.8 989.972 527.12 989.972 528.5C989.972 530.42 989.652 532.18 989.012 533.78C988.392 535.36 987.432 536.63 986.132 537.59C984.852 538.53 983.212 539 981.212 539H973.562C973.322 539 973.112 538.91 972.932 538.73C972.752 538.55 972.662 538.34 972.662 538.1V518.9C972.662 518.66 972.752 518.45 972.932 518.27C973.112 518.09 973.322 518 973.562 518H981.212ZM980.912 537.23C982.612 537.23 983.982 536.84 985.022 536.06C986.062 535.28 986.822 534.23 987.302 532.91C987.802 531.57 988.052 530.1 988.052 528.5C988.052 527.34 987.912 526.24 987.632 525.2C987.372 524.14 986.952 523.21 986.372 522.41C985.812 521.59 985.072 520.95 984.152 520.49C983.252 520.01 982.172 519.77 980.912 519.77H974.342L974.552 519.5V537.53L974.372 537.23H980.912ZM1000.01 539.3C998.494 539.32 997.174 539.08 996.054 538.58C994.934 538.08 993.864 537.33 992.844 536.33C992.744 536.25 992.654 536.15 992.574 536.03C992.514 535.91 992.484 535.77 992.484 535.61C992.484 535.37 992.574 535.15 992.754 534.95C992.954 534.75 993.174 534.65 993.414 534.65C993.654 534.65 993.874 534.75 994.074 534.95C994.854 535.79 995.734 536.43 996.714 536.87C997.714 537.31 998.784 537.53 999.924 537.53C1000.88 537.53 1001.73 537.38 1002.47 537.08C1003.23 536.78 1003.83 536.35 1004.27 535.79C1004.71 535.23 1004.93 534.58 1004.93 533.84C1004.93 532.92 1004.68 532.18 1004.18 531.62C1003.68 531.04 1003.02 530.57 1002.2 530.21C1001.38 529.83 1000.47 529.49 999.474 529.19C998.654 528.95 997.874 528.68 997.134 528.38C996.394 528.06 995.734 527.68 995.154 527.24C994.574 526.78 994.124 526.22 993.804 525.56C993.484 524.9 993.324 524.1 993.324 523.16C993.324 522.1 993.604 521.16 994.164 520.34C994.724 519.52 995.514 518.88 996.534 518.42C997.574 517.94 998.774 517.7 1000.13 517.7C1001.31 517.7 1002.44 517.9 1003.52 518.3C1004.62 518.7 1005.49 519.29 1006.13 520.07C1006.43 520.39 1006.58 520.68 1006.58 520.94C1006.58 521.14 1006.48 521.34 1006.28 521.54C1006.08 521.74 1005.86 521.84 1005.62 521.84C1005.42 521.84 1005.25 521.77 1005.11 521.63C1004.77 521.21 1004.34 520.84 1003.82 520.52C1003.3 520.18 1002.72 519.92 1002.08 519.74C1001.46 519.56 1000.81 519.47 1000.13 519.47C999.194 519.47 998.344 519.62 997.584 519.92C996.844 520.2 996.254 520.61 995.814 521.15C995.394 521.69 995.184 522.34 995.184 523.1C995.184 523.94 995.424 524.63 995.904 525.17C996.384 525.71 997.014 526.16 997.794 526.52C998.574 526.86 999.404 527.18 1000.28 527.48C1001.14 527.72 1001.96 528 1002.74 528.32C1003.54 528.62 1004.24 529 1004.84 529.46C1005.46 529.92 1005.94 530.5 1006.28 531.2C1006.64 531.9 1006.82 532.78 1006.82 533.84C1006.82 534.86 1006.53 535.78 1005.95 536.6C1005.37 537.42 1004.57 538.07 1003.55 538.55C1002.55 539.03 1001.37 539.28 1000.01 539.3ZM1029.79 528.5C1029.79 530.08 1029.54 531.53 1029.04 532.85C1028.56 534.15 1027.87 535.29 1026.97 536.27C1026.07 537.23 1025 537.98 1023.76 538.52C1022.54 539.04 1021.2 539.3 1019.74 539.3C1018.28 539.3 1016.93 539.04 1015.69 538.52C1014.47 537.98 1013.41 537.23 1012.51 536.27C1011.61 535.29 1010.91 534.15 1010.41 532.85C1009.93 531.53 1009.69 530.08 1009.69 528.5C1009.69 526.92 1009.93 525.48 1010.41 524.18C1010.91 522.86 1011.61 521.72 1012.51 520.76C1013.41 519.78 1014.47 519.03 1015.69 518.51C1016.93 517.97 1018.28 517.7 1019.74 517.7C1021.2 517.7 1022.54 517.97 1023.76 518.51C1025 519.03 1026.07 519.78 1026.97 520.76C1027.87 521.72 1028.56 522.86 1029.04 524.18C1029.54 525.48 1029.79 526.92 1029.79 528.5ZM1027.87 528.5C1027.87 526.72 1027.52 525.16 1026.82 523.82C1026.14 522.46 1025.19 521.4 1023.97 520.64C1022.75 519.88 1021.34 519.5 1019.74 519.5C1018.16 519.5 1016.75 519.88 1015.51 520.64C1014.29 521.4 1013.33 522.46 1012.63 523.82C1011.95 525.16 1011.61 526.72 1011.61 528.5C1011.61 530.28 1011.95 531.85 1012.63 533.21C1013.33 534.55 1014.29 535.6 1015.51 536.36C1016.75 537.12 1018.16 537.5 1019.74 537.5C1021.34 537.5 1022.75 537.12 1023.97 536.36C1025.19 535.6 1026.14 534.55 1026.82 533.21C1027.52 531.85 1027.87 530.28 1027.87 528.5ZM1034.94 518C1035.08 518 1035.22 518.03 1035.36 518.09C1035.52 518.15 1035.65 518.25 1035.75 518.39L1044.03 530.81L1043.22 530.78L1051.53 518.39C1051.75 518.09 1052.02 517.96 1052.34 518C1052.58 518 1052.78 518.09 1052.94 518.27C1053.12 518.43 1053.21 518.64 1053.21 518.9V538.1C1053.21 538.34 1053.12 538.55 1052.94 538.73C1052.76 538.91 1052.54 539 1052.28 539C1052 539 1051.77 538.91 1051.59 538.73C1051.41 538.55 1051.32 538.34 1051.32 538.1V520.73L1051.86 520.79L1044.27 532.28C1044.21 532.4 1044.12 532.5 1044 532.58C1043.88 532.64 1043.74 532.66 1043.58 532.64C1043.44 532.66 1043.3 532.64 1043.16 532.58C1043.04 532.5 1042.94 532.4 1042.86 532.28L1035.24 520.67L1035.81 520.28V538.1C1035.81 538.34 1035.72 538.55 1035.54 538.73C1035.38 538.91 1035.17 539 1034.91 539C1034.65 539 1034.44 538.91 1034.28 538.73C1034.12 538.55 1034.04 538.34 1034.04 538.1V518.9C1034.04 518.66 1034.12 518.45 1034.28 518.27C1034.46 518.09 1034.68 518 1034.94 518ZM1059.75 518H1070.76C1071 518 1071.21 518.09 1071.39 518.27C1071.57 518.43 1071.66 518.64 1071.66 518.9C1071.66 519.16 1071.57 519.37 1071.39 519.53C1071.21 519.69 1071 519.77 1070.76 519.77H1060.44L1060.74 519.26V527.69L1060.41 527.3H1069.41C1069.65 527.3 1069.86 527.39 1070.04 527.57C1070.22 527.75 1070.31 527.96 1070.31 528.2C1070.31 528.46 1070.22 528.67 1070.04 528.83C1069.86 528.99 1069.65 529.07 1069.41 529.07H1060.47L1060.74 528.77V537.41L1060.59 537.23H1070.76C1071 537.23 1071.21 537.32 1071.39 537.5C1071.57 537.68 1071.66 537.89 1071.66 538.13C1071.66 538.39 1071.57 538.6 1071.39 538.76C1071.21 538.92 1071 539 1070.76 539H1059.75C1059.51 539 1059.3 538.91 1059.12 538.73C1058.94 538.55 1058.85 538.34 1058.85 538.1V518.9C1058.85 518.66 1058.94 518.45 1059.12 518.27C1059.3 518.09 1059.51 518 1059.75 518Z" fill="white"/>
<path d="M1156.24 539.3C1154.7 539.3 1153.27 539.03 1151.95 538.49C1150.63 537.95 1149.48 537.2 1148.5 536.24C1147.54 535.26 1146.79 534.11 1146.25 532.79C1145.71 531.47 1145.44 530.04 1145.44 528.5C1145.44 526.96 1145.71 525.53 1146.25 524.21C1146.79 522.89 1147.54 521.75 1148.5 520.79C1149.48 519.81 1150.63 519.05 1151.95 518.51C1153.27 517.97 1154.7 517.7 1156.24 517.7C1157.3 517.7 1158.32 517.83 1159.3 518.09C1160.3 518.33 1161.19 518.7 1161.97 519.2C1162.11 519.3 1162.21 519.42 1162.27 519.56C1162.35 519.68 1162.39 519.81 1162.39 519.95C1162.39 520.23 1162.3 520.46 1162.12 520.64C1161.94 520.8 1161.75 520.88 1161.55 520.88C1161.45 520.88 1161.35 520.87 1161.25 520.85C1161.17 520.81 1161.09 520.77 1161.01 520.73C1160.33 520.35 1159.59 520.05 1158.79 519.83C1157.99 519.61 1157.14 519.5 1156.24 519.5C1154.52 519.5 1152.99 519.89 1151.65 520.67C1150.31 521.45 1149.26 522.52 1148.5 523.88C1147.74 525.24 1147.36 526.78 1147.36 528.5C1147.36 530.22 1147.74 531.76 1148.5 533.12C1149.26 534.48 1150.31 535.55 1151.65 536.33C1152.99 537.11 1154.52 537.5 1156.24 537.5C1157.14 537.5 1158.04 537.37 1158.94 537.11C1159.86 536.85 1160.65 536.5 1161.31 536.06L1161.16 536.69V529.79L1161.61 530.21H1156.42C1156.16 530.21 1155.94 530.12 1155.76 529.94C1155.58 529.76 1155.49 529.55 1155.49 529.31C1155.49 529.03 1155.58 528.81 1155.76 528.65C1155.94 528.49 1156.16 528.41 1156.42 528.41H1162.15C1162.41 528.41 1162.62 528.5 1162.78 528.68C1162.96 528.84 1163.05 529.05 1163.05 529.31V536.54C1163.05 536.7 1163.01 536.85 1162.93 536.99C1162.85 537.13 1162.74 537.25 1162.6 537.35C1161.72 537.95 1160.73 538.43 1159.63 538.79C1158.55 539.13 1157.42 539.3 1156.24 539.3ZM1168.7 539C1168.4 539 1168.15 538.91 1167.95 538.73C1167.77 538.55 1167.68 538.34 1167.68 538.1V518.9C1167.68 518.66 1167.77 518.45 1167.95 518.27C1168.13 518.09 1168.34 518 1168.58 518H1176.68C1177.82 518 1178.84 518.25 1179.74 518.75C1180.64 519.23 1181.34 519.9 1181.84 520.76C1182.36 521.62 1182.62 522.59 1182.62 523.67C1182.62 524.55 1182.46 525.36 1182.14 526.1C1181.82 526.84 1181.37 527.47 1180.79 527.99C1180.21 528.49 1179.56 528.86 1178.84 529.1L1177.79 528.77C1178.53 528.83 1179.22 529.07 1179.86 529.49C1180.5 529.89 1181.01 530.45 1181.39 531.17C1181.79 531.87 1182 532.72 1182.02 533.72C1182.04 534.58 1182.08 535.25 1182.14 535.73C1182.22 536.21 1182.33 536.57 1182.47 536.81C1182.61 537.05 1182.79 537.24 1183.01 537.38C1183.21 537.5 1183.34 537.67 1183.4 537.89C1183.48 538.11 1183.46 538.32 1183.34 538.52C1183.26 538.68 1183.14 538.8 1182.98 538.88C1182.84 538.94 1182.69 538.97 1182.53 538.97C1182.37 538.97 1182.21 538.93 1182.05 538.85C1181.77 538.69 1181.48 538.44 1181.18 538.1C1180.9 537.76 1180.66 537.26 1180.46 536.6C1180.28 535.94 1180.19 535.02 1180.19 533.84C1180.19 533.06 1180.06 532.42 1179.8 531.92C1179.56 531.42 1179.24 531.04 1178.84 530.78C1178.46 530.5 1178.03 530.31 1177.55 530.21C1177.09 530.09 1176.65 530.03 1176.23 530.03H1169.24L1169.57 529.61V538.1C1169.57 538.34 1169.49 538.55 1169.33 538.73C1169.17 538.91 1168.96 539 1168.7 539ZM1169.24 528.38H1176.77C1177.45 528.32 1178.09 528.1 1178.69 527.72C1179.29 527.32 1179.77 526.78 1180.13 526.1C1180.51 525.42 1180.7 524.63 1180.7 523.73C1180.7 522.59 1180.31 521.65 1179.53 520.91C1178.77 520.15 1177.77 519.77 1176.53 519.77H1169.36L1169.57 519.35V528.8L1169.24 528.38ZM1206.2 528.5C1206.2 530.08 1205.95 531.53 1205.45 532.85C1204.97 534.15 1204.28 535.29 1203.38 536.27C1202.48 537.23 1201.41 537.98 1200.17 538.52C1198.95 539.04 1197.61 539.3 1196.15 539.3C1194.69 539.3 1193.34 539.04 1192.1 538.52C1190.88 537.98 1189.82 537.23 1188.92 536.27C1188.02 535.29 1187.32 534.15 1186.82 532.85C1186.34 531.53 1186.1 530.08 1186.1 528.5C1186.1 526.92 1186.34 525.48 1186.82 524.18C1187.32 522.86 1188.02 521.72 1188.92 520.76C1189.82 519.78 1190.88 519.03 1192.1 518.51C1193.34 517.97 1194.69 517.7 1196.15 517.7C1197.61 517.7 1198.95 517.97 1200.17 518.51C1201.41 519.03 1202.48 519.78 1203.38 520.76C1204.28 521.72 1204.97 522.86 1205.45 524.18C1205.95 525.48 1206.2 526.92 1206.2 528.5ZM1204.28 528.5C1204.28 526.72 1203.93 525.16 1203.23 523.82C1202.55 522.46 1201.6 521.4 1200.38 520.64C1199.16 519.88 1197.75 519.5 1196.15 519.5C1194.57 519.5 1193.16 519.88 1191.92 520.64C1190.7 521.4 1189.74 522.46 1189.04 523.82C1188.36 525.16 1188.02 526.72 1188.02 528.5C1188.02 530.28 1188.36 531.85 1189.04 533.21C1189.74 534.55 1190.7 535.6 1191.92 536.36C1193.16 537.12 1194.57 537.5 1196.15 537.5C1197.75 537.5 1199.16 537.12 1200.38 536.36C1201.6 535.6 1202.55 534.55 1203.23 533.21C1203.93 531.85 1204.28 530.28 1204.28 528.5ZM1229.17 528.5C1229.17 530.08 1228.92 531.53 1228.42 532.85C1227.94 534.15 1227.25 535.29 1226.35 536.27C1225.45 537.23 1224.38 537.98 1223.14 538.52C1221.92 539.04 1220.58 539.3 1219.12 539.3C1217.66 539.3 1216.31 539.04 1215.07 538.52C1213.85 537.98 1212.79 537.23 1211.89 536.27C1210.99 535.29 1210.29 534.15 1209.79 532.85C1209.31 531.53 1209.07 530.08 1209.07 528.5C1209.07 526.92 1209.31 525.48 1209.79 524.18C1210.29 522.86 1210.99 521.72 1211.89 520.76C1212.79 519.78 1213.85 519.03 1215.07 518.51C1216.31 517.97 1217.66 517.7 1219.12 517.7C1220.58 517.7 1221.92 517.97 1223.14 518.51C1224.38 519.03 1225.45 519.78 1226.35 520.76C1227.25 521.72 1227.94 522.86 1228.42 524.18C1228.92 525.48 1229.17 526.92 1229.17 528.5ZM1227.25 528.5C1227.25 526.72 1226.9 525.16 1226.2 523.82C1225.52 522.46 1224.57 521.4 1223.35 520.64C1222.13 519.88 1220.72 519.5 1219.12 519.5C1217.54 519.5 1216.13 519.88 1214.89 520.64C1213.67 521.4 1212.71 522.46 1212.01 523.82C1211.33 525.16 1210.99 526.72 1210.99 528.5C1210.99 530.28 1211.33 531.85 1212.01 533.21C1212.71 534.55 1213.67 535.6 1214.89 536.36C1216.13 537.12 1217.54 537.5 1219.12 537.5C1220.72 537.5 1222.13 537.12 1223.35 536.36C1224.57 535.6 1225.52 534.55 1226.2 533.21C1226.9 531.85 1227.25 530.28 1227.25 528.5ZM1234.32 518C1234.46 518 1234.6 518.03 1234.74 518.09C1234.9 518.15 1235.03 518.25 1235.13 518.39L1243.41 530.81L1242.6 530.78L1250.91 518.39C1251.13 518.09 1251.4 517.96 1251.72 518C1251.96 518 1252.16 518.09 1252.32 518.27C1252.5 518.43 1252.59 518.64 1252.59 518.9V538.1C1252.59 538.34 1252.5 538.55 1252.32 538.73C1252.14 538.91 1251.92 539 1251.66 539C1251.38 539 1251.15 538.91 1250.97 538.73C1250.79 538.55 1250.7 538.34 1250.7 538.1V520.73L1251.24 520.79L1243.65 532.28C1243.59 532.4 1243.5 532.5 1243.38 532.58C1243.26 532.64 1243.12 532.66 1242.96 532.64C1242.82 532.66 1242.68 532.64 1242.54 532.58C1242.42 532.5 1242.32 532.4 1242.24 532.28L1234.62 520.67L1235.19 520.28V538.1C1235.19 538.34 1235.1 538.55 1234.92 538.73C1234.76 538.91 1234.55 539 1234.29 539C1234.03 539 1233.82 538.91 1233.66 538.73C1233.5 538.55 1233.42 538.34 1233.42 538.1V518.9C1233.42 518.66 1233.5 518.45 1233.66 518.27C1233.84 518.09 1234.06 518 1234.32 518ZM1259.14 518H1270.15C1270.39 518 1270.6 518.09 1270.78 518.27C1270.96 518.43 1271.05 518.64 1271.05 518.9C1271.05 519.16 1270.96 519.37 1270.78 519.53C1270.6 519.69 1270.39 519.77 1270.15 519.77H1259.83L1260.13 519.26V527.69L1259.8 527.3H1268.8C1269.04 527.3 1269.25 527.39 1269.43 527.57C1269.61 527.75 1269.7 527.96 1269.7 528.2C1269.7 528.46 1269.61 528.67 1269.43 528.83C1269.25 528.99 1269.04 529.07 1268.8 529.07H1259.86L1260.13 528.77V537.41L1259.98 537.23H1270.15C1270.39 537.23 1270.6 537.32 1270.78 537.5C1270.96 537.68 1271.05 537.89 1271.05 538.13C1271.05 538.39 1270.96 538.6 1270.78 538.76C1270.6 538.92 1270.39 539 1270.15 539H1259.14C1258.9 539 1258.69 538.91 1258.51 538.73C1258.33 538.55 1258.24 538.34 1258.24 538.1V518.9C1258.24 518.66 1258.33 518.45 1258.51 518.27C1258.69 518.09 1258.9 518 1259.14 518ZM1283.84 518C1285.32 518 1286.61 518.28 1287.71 518.84C1288.83 519.4 1289.75 520.18 1290.47 521.18C1291.19 522.16 1291.72 523.28 1292.06 524.54C1292.42 525.8 1292.6 527.12 1292.6 528.5C1292.6 530.42 1292.28 532.18 1291.64 533.78C1291.02 535.36 1290.06 536.63 1288.76 537.59C1287.48 538.53 1285.84 539 1283.84 539H1276.19C1275.95 539 1275.74 538.91 1275.56 538.73C1275.38 538.55 1275.29 538.34 1275.29 538.1V518.9C1275.29 518.66 1275.38 518.45 1275.56 518.27C1275.74 518.09 1275.95 518 1276.19 518H1283.84ZM1283.54 537.23C1285.24 537.23 1286.61 536.84 1287.65 536.06C1288.69 535.28 1289.45 534.23 1289.93 532.91C1290.43 531.57 1290.68 530.1 1290.68 528.5C1290.68 527.34 1290.54 526.24 1290.26 525.2C1290 524.14 1289.58 523.21 1289 522.41C1288.44 521.59 1287.7 520.95 1286.78 520.49C1285.88 520.01 1284.8 519.77 1283.54 519.77H1276.97L1277.18 519.5V537.53L1277 537.23H1283.54Z" fill="white"/>
</svg>
